PathFileType	4	(X/Y/Z)	/Users/itak/Documents/Research/Walk-IL/dataset/trc/00110_00007.trc
DataRate	CameraRate	NumFrames	NumMarkers	Units	OrigDataRate	OrigDataStartFrame	OrigNumFrames
100.000000	100.000000	4	53	mm	100.000000	297	594
Frame#	Time	RPSI			LPSI			L3			STRN			T10			C7			CLAV			RBAK			LBAK			LSHO			LUPA			LAEL			LAOL			LWTS			LWPS			LFRA			LIFD			LHPS			LHTS			RSHO			RUPA			RAEL			RAOL			RWTS			RWPS			RFRA			RIFD			RHTS			RHPS			RBHD			LFHD			RFHD			LBHD			LHIP			RHIP			RASI			LASI			LKNE			LTHI			LANK			LTIP			LTOE			LMT1			LMT5			LHEE			RKNE			RTHI			RANK			RTIP			RTOE			RMT1			RMT5			RHEE			
		X1	Y1	Z1	X2	Y2	Z2	X3	Y3	Z3	X4	Y4	Z4	X5	Y5	Z5	X6	Y6	Z6	X7	Y7	Z7	X8	Y8	Z8	X9	Y9	Z9	X10	Y10	Z10	X11	Y11	Z11	X12	Y12	Z12	X13	Y13	Z13	X14	Y14	Z14	X15	Y15	Z15	X16	Y16	Z16	X17	Y17	Z17	X18	Y18	Z18	X19	Y19	Z19	X20	Y20	Z20	X21	Y21	Z21	X22	Y22	Z22	X23	Y23	Z23	X24	Y24	Z24	X25	Y25	Z25	X26	Y26	Z26	X27	Y27	Z27	X28	Y28	Z28	X29	Y29	Z29	X30	Y30	Z30	X31	Y31	Z31	X32	Y32	Z32	X33	Y33	Z33	X34	Y34	Z34	X35	Y35	Z35	X36	Y36	Z36	X37	Y37	Z37	X38	Y38	Z38	X39	Y39	Z39	X40	Y40	Z40	X41	Y41	Z41	X42	Y42	Z42	X43	Y43	Z43	X44	Y44	Z44	X45	Y45	Z45	X46	Y46	Z46	X47	Y47	Z47	X48	Y48	Z48	X49	Y49	Z49	X50	Y50	Z50	X51	Y51	Z51	X52	Y52	Z52	X53	Y53	Z53	

298	2.97	-283.376220703125	1115.110595703125	-236.758056640625	-273.6849060058594	1119.407958984375	-371.86767578125	-287.1924743652344	1160.95556640625	-306.5792846679688	-45.40665054321289	1351.080688476562	-289.240478515625	-300.5292663574219	1317.110473632812	-306.000732421875	-238.4990386962891	1605.094970703125	-322.6282348632812	-67.94090270996094	1488.773071289062	-299.5687561035156	-310.38427734375	1428.789428710938	-232.7923583984375	-241.7565002441406	1583.922241210938	-423.7167358398438	-152.7273101806641	1561.797729492188	-485.8180847167969	-178.9862060546875	1432.539184570312	-555.9808349609375	-184.1827239990234	1214.446533203125	-580.694091796875	-255.4231567382812	1207.446044921875	-528.38232421875	-102.1081695556641	951.812255859375	-530.4027709960938	-182.6940460205078	930.3546142578125	-560.9827880859375	-175.0294036865234	1097.231689453125	-583.82763671875	-104.8350219726562	759.6896362304688	-501.0627136230469	-158.6051330566406	853.7128295898438	-558.6943359375	-91.9068603515625	861.1658325195312	-538.1080322265625	-195.4969177246094	1589.20751953125	-137.4233856201172	-219.4799346923828	1519.657104492188	-72.16696166992188	-248.5918121337891	1228.104370117188	-37.05569076538086	-247.5648498535156	1221.735473632812	-133.8625793457031	-103.9074325561523	987.4436645507812	-23.95542335510254	-179.8336944580078	970.37841796875	1.171714901924133	-227.1649322509766	1155.318969726562	-15.82567024230957	-72.99166107177734	792.8896484375	-23.5778694152832	-72.84977722167969	880.8952026367188	-7.81525993347168	-141.5791931152344	872.8306884765625	15.96608257293701	-198.1658172607422	1772.692993164062	-243.0316162109375	-40.89340591430664	1834.296752929688	-383.3572082519531	-36.85829925537109	1847.214721679688	-255.0438690185547	-209.9447784423828	1764.077880859375	-378.4015808105469	-165.0234832763672	1035.671020507812	-472.1403198242188	-167.8437805175781	1021.935913085938	-107.9090194702148	-82.48918914794922	1095.357421875	-151.294921875	-66.24138641357422	1100.178100585938	-414.2975158691406	64.46947479248047	575.9989624023438	-433.2604675292969	-20.26990699768066	705.1987915039062	-464.8722534179688	-105.164176940918	76.77410888671875	-457.7979125976562	-58.91063690185547	330.590576171875	-470.7733764648438	126.0625915527344	61.08253860473633	-431.4826354980469	53.66254806518555	66.41960144042969	-386.5565185546875	13.71295166015625	62.95795059204102	-495.8153686523438	-165.9651489257812	81.00733184814453	-388.143310546875	-156.3115692138672	526.7666625976562	-172.8283386230469	-142.5492095947266	806.0245971679688	-125.1734085083008	-314.3598022460938	32.61112594604492	-232.4475402832031	-194.6449890136719	392.506103515625	-173.5874328613281	-77.27310943603516	40.83896255493164	-266.3491516113281	-137.01220703125	31.81674575805664	-311.5396118164062	-180.4458770751953	38.16833114624023	-199.7945251464844	-367.9004516601562	39.05668640136719	-285.9097290039062	
299	2.98	-290.0509338378906	1116.38623046875	-236.7074127197266	-279.9324951171875	1120.700439453125	-371.7676391601562	-293.6337585449219	1162.158569335938	-306.543212890625	-52.32022094726562	1352.594482421875	-288.4129028320312	-307.3525085449219	1318.200317382812	-306.0204467773438	-245.7426605224609	1606.324462890625	-322.3760070800781	-75.07115173339844	1490.253173828125	-298.7618103027344	-317.6764831542969	1429.905151367188	-232.8449249267578	-248.6891326904297	1585.163818359375	-423.4820251464844	-159.3509674072266	1563.272705078125	-485.2665710449219	-185.2170104980469	1434.007568359375	-555.5791015625	-190.1823272705078	1215.952392578125	-580.3607788085938	-261.6215209960938	1208.885009765625	-528.3875732421875	-108.0457305908203	953.3842163085938	-529.6312255859375	-188.4358520507812	931.8314819335938	-560.7427368164062	-180.8568725585938	1098.725341796875	-583.4765625	-110.8216552734375	761.2511596679688	-500.2382202148438	-164.2586212158203	855.205078125	-558.283447265625	-97.71968078613281	862.7167358398438	-537.26123046875	-203.3134613037109	1590.49560546875	-137.0837707519531	-227.5328826904297	1521.016967773438	-71.89717864990234	-257.7961730957031	1229.784423828125	-36.84945297241211	-256.1003723144531	1223.35205078125	-133.6488189697266	-115.9351119995117	987.4597778320312	-22.60781097412109	-192.2489929199219	971.4194946289062	2.007075071334839	-237.1946258544922	1156.905029296875	-15.41961288452148	-87.6968994140625	792.4275512695312	-21.9904727935791	-86.42036437988281	880.4523315429688	-6.236695289611816	-155.3636627197266	873.3729248046875	17.12617492675781	-205.8665466308594	1774.013793945312	-242.4762420654297	-48.71575546264648	1835.638671875	-382.7191162109375	-44.65820693969727	1848.763427734375	-254.4742126464844	-217.5337982177734	1765.2626953125	-377.864013671875	-170.8684387207031	1036.8056640625	-471.6160888671875	-174.93994140625	1023.446044921875	-107.4130630493164	-89.45940399169922	1096.819580078125	-150.6172027587891	-72.46092987060547	1101.455200195312	-413.62548828125	54.97728729248047	574.8020629882812	-431.7524719238281	-28.24619483947754	705.175048828125	-463.6423950195312	-127.8259506225586	80.00202941894531	-458.6083984375	-74.15940856933594	332.5148620605469	-470.7478637695312	102.591911315918	58.92832183837891	-428.5398559570312	29.34357452392578	65.70650482177734	-384.5663452148438	-8.820661544799805	63.11650466918945	-494.5203247070312	-189.6178131103516	85.98429107666016	-389.9563903808594	-162.1277618408203	528.1863403320312	-171.6383666992188	-149.1732330322266	807.4601440429688	-124.2836151123047	-314.4210815429688	32.38371658325195	-232.4105224609375	-199.2977142333984	393.79931640625	-172.6069488525391	-77.36446380615234	40.94930267333984	-265.6767272949219	-136.9642181396484	32.27352905273438	-311.1714172363281	-180.5059051513672	38.0777473449707	-199.5513305664062	-367.8223266601562	38.89505767822266	-286.0788879394531	
300	2.99	-296.6951293945312	1117.52734375	-236.7811431884766	-286.0751342773438	1121.847412109375	-371.7686157226562	-299.9823608398438	1163.21044921875	-306.6187438964844	-59.20612716674805	1353.92578125	-287.5981140136719	-314.0514526367188	1319.096557617188	-306.0662536621094	-252.9501953125	1607.386108398438	-322.1423950195312	-82.16233825683594	1491.551025390625	-297.9609985351562	-324.9419250488281	1430.861083984375	-232.937255859375	-255.5672454833984	1586.232421875	-423.2670593261719	-165.9178924560547	1564.576171875	-484.7195434570312	-191.3865814208984	1435.31396484375	-555.2078857421875	-196.0868225097656	1217.302001953125	-580.12451171875	-267.7360534667969	1210.140991210938	-528.517578125	-113.7584762573242	954.8557739257812	-528.9527587890625	-193.9110717773438	933.1550903320312	-560.6341552734375	-186.5322265625	1100.070678710938	-583.233154296875	-116.4328842163086	762.7093505859375	-499.5693969726562	-169.5887298583984	856.5692138671875	-558.0119018554688	-103.2233047485352	864.1863403320312	-536.5235595703125	-211.0902404785156	1591.606811523438	-136.7563018798828	-235.5657501220703	1522.201293945312	-71.64539337158203	-266.9771118164062	1231.292724609375	-36.64903259277344	-264.6778869628906	1224.795654296875	-133.4393615722656	-127.9121704101562	987.3655395507812	-21.36710166931152	-204.5932769775391	972.3291015625	2.755777597427368	-247.1886596679688	1158.327514648438	-15.04467582702637	-102.3060073852539	791.8963012695312	-20.59446144104004	-99.92062377929688	879.918701171875	-4.818999290466309	-169.0447845458984	873.8116455078125	18.16041374206543	-213.5362396240234	1775.171630859375	-241.941650390625	-56.50773620605469	1836.843017578125	-382.1540222167969	-52.46635437011719	1850.175537109375	-253.9577941894531	-225.1162719726562	1766.2314453125	-377.3424682617188	-176.5759582519531	1037.759765625	-471.17919921875	-182.0129241943359	1024.751220703125	-106.9811477661133	-96.412353515625	1098.1103515625	-149.9705047607422	-78.65068817138672	1102.54541015625	-412.9850463867188	45.11514663696289	573.2678833007812	-430.3734130859375	-36.44943618774414	704.8238525390625	-462.508544921875	-150.6053619384766	83.24790954589844	-459.6001281738281	-89.69259643554688	334.2775268554688	-470.8500671386719	78.86083984375	56.82712173461914	-426.1643371582031	4.878419399261475	65.05225372314453	-383.0005187988281	-31.64521980285645	63.28875350952148	-493.6033325195312	-213.1643829345703	90.98411560058594	-391.8592529296875	-167.8600006103516	529.4837036132812	-170.4795074462891	-155.7946166992188	808.7669677734375	-123.4214630126953	-314.508056640625	32.10607528686523	-232.3379821777344	-203.914794921875	394.968994140625	-171.6516723632812	-77.490234375	41.07095336914062	-264.9519653320312	-136.9440002441406	32.74208068847656	-310.8011474609375	-180.5863952636719	37.97417068481445	-199.2967529296875	-367.7977600097656	38.68163299560547	-286.19287109375	
301	3	-303.3152770996094	1118.526000976562	-236.9645233154297	-292.1226806640625	1122.830932617188	-371.8551940917969	-306.259521484375	1164.09814453125	-306.7938842773438	-66.07305145263672	1355.062866210938	-286.8043212890625	-320.631103515625	1319.795654296875	-306.1341552734375	-260.1298217773438	1608.267822265625	-321.9310913085938	-89.22428894042969	1492.653442382812	-297.1695556640625	-332.1777954101562	1431.642211914062	-233.0746307373047	-262.3955993652344	1587.119873046875	-423.0745239257812	-172.4345397949219	1565.697143554688	-484.1800842285156	-197.4975433349609	1436.445678710938	-554.866943359375	-201.8944091796875	1218.481811523438	-579.97802734375	-273.7596130371094	1211.20166015625	-528.7588500976562	-119.2591857910156	956.205810546875	-528.37255859375	-199.1383056640625	934.3129272460938	-560.6441040039062	-192.0557250976562	1101.255493164062	-583.0894165039062	-121.6830825805664	764.0446166992188	-499.0659790039062	-174.6235504150391	857.786865234375	-557.872802734375	-108.4355926513672	865.5564575195312	-535.9024658203125	-218.8369750976562	1592.523193359375	-136.4388275146484	-243.5900573730469	1523.18994140625	-71.41658782958984	-276.1412048339844	1232.606201171875	-36.45485687255859	-273.30322265625	1226.046264648438	-133.2374877929688	-139.8169708251953	987.1531372070312	-20.23187065124512	-216.8446807861328	973.0877075195312	3.423957109451294	-257.1523132324219	1159.5634765625	-14.70173358917236	-116.7617797851562	791.2938232421875	-19.38243103027344	-113.3115844726562	879.292236328125	-3.560177326202393	-182.5852355957031	874.1314086914062	19.07145309448242	-221.1769409179688	1776.151123046875	-241.4211883544922	-64.27069091796875	1837.89453125	-381.6590270996094	-60.29020309448242	1851.431884765625	-253.4861907958984	-232.6938018798828	1766.97314453125	-376.8351745605469	-182.1712188720703	1038.512939453125	-470.8283081054688	-189.0547943115234	1025.86279296875	-106.6163711547852	-103.3418579101562	1099.222900390625	-149.3628845214844	-84.81206512451172	1103.436157226562	-412.3826904296875	34.90449142456055	571.4234008789062	-429.1428833007812	-44.88756942749023	704.1624755859375	-461.4765930175781	-173.4747009277344	86.52471160888672	-460.7733154296875	-105.4982528686523	335.8937377929688	-471.0829162597656	54.89323425292969	54.77038192749023	-424.327392578125	-19.68427467346191	64.47142028808594	-381.8863220214844	-54.72321319580078	63.48859405517578	-493.0688781738281	-236.6068267822266	96.00472259521484	-393.8499755859375	-173.4972076416016	530.6509399414062	-169.3532257080078	-162.4110107421875	809.9407958984375	-122.5926055908203	-314.62158203125	31.77091979980469	-232.2109985351562	-208.4776000976562	396.0069885253906	-170.7235870361328	-77.65169525146484	41.22259521484375	-264.2058715820312	-136.9637756347656	33.22611236572266	-310.4336547851562	-180.6879730224609	37.85879898071289	-199.0293884277344	-367.8322448730469	38.40633010864258	-286.2221374511719	
